<svg width="125" height="97" viewBox="0 0 125 97" fill="none" xmlns="http://www.w3.org/2000/svg">
<path d="M102.27 53.7399C103.843 56.7732 105.486 59.7732 107.2 62.7399C107.84 63.8099 108.51 64.8599 109.2 65.9199C111.46 69.6899 113.85 73.3899 116.42 76.9199C117.55 78.5099 118.79 80.0299 119.99 81.5499C120.77 82.5499 121.61 83.4299 122.4 84.3899C122.8 84.8699 123.2 85.3299 123.59 85.8899C123.869 86.3958 124.204 86.8688 124.59 87.2999C125.09 87.7099 124.98 87.9499 124.21 87.8199C123.711 87.6737 123.251 87.4213 122.86 87.0799L122.16 86.5099C121.885 86.3077 121.634 86.0763 121.41 85.8199C120.55 84.8199 119.67 83.9299 118.82 82.9599C117.97 81.9899 117.16 80.9599 116.36 79.9599C114.82 77.8999 113.36 75.7999 111.93 73.6199C110.26 71.0199 108.41 68.3899 106.73 65.7099C104.91 62.7099 103.15 59.7099 101.49 56.7099C100.49 54.8399 99.4895 52.9399 98.4895 51.0499C96.9995 48.1799 95.6095 45.2399 94.1995 42.3599C93.1847 40.1814 91.8611 38.1606 90.2695 36.3599C89.9731 36.0444 89.637 35.7688 89.2695 35.5399C89.1559 35.4842 89.0311 35.4553 88.9045 35.4553C88.778 35.4553 88.6532 35.4842 88.5395 35.5399L88.1595 35.6499L87.6595 35.7499C87.4877 35.7855 87.3141 35.8122 87.1395 35.8299C86.8795 35.8299 86.7395 35.5999 86.7495 35.1299C86.7586 34.9894 86.7889 34.8512 86.8395 34.7199C86.8893 34.5335 86.9779 34.3597 87.0995 34.2099C87.3893 33.7498 87.8434 33.4173 88.3695 33.2799C88.8222 33.165 89.2986 33.1859 89.7395 33.3399C89.9702 33.4056 90.1919 33.4997 90.3995 33.6199C90.5813 33.7299 90.7521 33.8571 90.9095 33.9999C91.4449 34.3829 91.9318 34.8295 92.3595 35.3299C93.1499 36.248 93.856 37.2353 94.4695 38.2799C95.0795 39.2799 95.6395 40.3699 96.1495 41.4299L97.6495 44.5499C99.1595 47.6399 100.65 50.7299 102.32 53.7599L102.27 53.7399Z" fill="#231F20"/>
<path d="M83.2199 34.88C82.8571 34.1149 82.4463 33.3734 81.9899 32.66C81.8199 32.41 81.5999 32.19 81.4199 31.93L80.9099 31.26C80.8046 31.1068 80.6684 30.9773 80.5099 30.88C80.1011 30.5728 79.6497 30.3269 79.1699 30.15C78.7678 30.0006 78.3359 29.9492 77.9099 30C77.7215 30.0266 77.5446 30.1064 77.3999 30.23C77.2858 30.3604 77.1945 30.5092 77.1299 30.67C77.0499 30.8 76.6699 30.83 76.3199 30.61C76.1114 30.4861 75.9551 30.2906 75.8799 30.06C75.8373 29.9057 75.8323 29.7435 75.8653 29.5869C75.8984 29.4303 75.9686 29.2839 76.0699 29.16C76.2664 28.9129 76.5115 28.7087 76.7899 28.56C77.0278 28.444 77.28 28.3599 77.5399 28.31C77.9768 28.2352 78.4231 28.2352 78.8599 28.31C79.6179 28.4258 80.3453 28.6909 80.9999 29.09C81.4599 29.3356 81.8895 29.6343 82.2799 29.98C82.5821 30.2718 82.8691 30.5789 83.1399 30.9C83.7224 31.6138 84.2569 32.3655 84.7399 33.15C85.0399 33.62 85.3199 34.15 85.5999 34.6C86.0199 35.35 86.3599 36.14 86.7499 36.89C87.0599 37.48 87.4599 38.02 87.7499 38.61C87.8199 38.74 87.8999 38.87 87.9599 39.01C88.1499 39.53 87.9599 39.76 87.4299 40.01L87.0499 40.18C86.8704 40.25 86.6753 40.2703 86.4852 40.2386C86.2951 40.2069 86.1171 40.1245 85.9699 40C85.2795 39.1423 84.717 38.189 84.2999 37.17C83.9299 36.44 83.5699 35.68 83.1699 34.94L83.2199 34.88Z" fill="#231F20"/>
<path d="M75.5294 31.6599C75.0788 30.6523 74.5365 29.6882 73.9094 28.7799C73.6694 28.4899 73.3994 28.1899 73.1394 27.9299C72.9239 27.6794 72.6899 27.4454 72.4394 27.2299C72.2127 27.0111 71.9609 26.8197 71.6894 26.6599C71.1542 26.3339 70.5357 26.1706 69.9094 26.1899C69.3603 26.2125 68.835 26.4204 68.4194 26.7799C67.9174 27.2986 67.553 27.9346 67.3594 28.6299C67.2694 28.8499 66.9494 28.8199 66.6694 28.5399C66.4752 28.3613 66.3377 28.1298 66.2737 27.8739C66.2097 27.6179 66.2221 27.3489 66.3094 27.0999C66.4955 26.549 66.7995 26.0454 67.2001 25.6239C67.6008 25.2025 68.0886 24.8736 68.6294 24.6599C69.6932 24.2809 70.8607 24.3166 71.8994 24.7599C73.0418 25.2258 74.0665 25.9397 74.8994 26.8499C75.7203 27.7887 76.4254 28.8228 76.9994 29.9299C77.3594 30.5799 77.6894 31.2599 77.9994 31.9299C78.4694 32.9299 78.8794 33.9899 79.3394 34.9999C79.6894 35.7799 80.1494 36.4999 80.5394 37.2599C80.6294 37.4299 80.7294 37.5799 80.7994 37.7499C81.0794 38.3899 81.0294 38.6399 80.5094 38.9899C80.4042 39.0733 80.294 39.1501 80.1794 39.2199C79.9789 39.3235 79.7465 39.3471 79.5293 39.2858C79.312 39.2245 79.1262 39.083 79.0094 38.8899C78.1773 37.595 77.474 36.2218 76.9094 34.7899C76.4594 33.7299 76.0094 32.6799 75.4994 31.6799L75.5294 31.6599Z" fill="#231F20"/>
<path d="M63.4292 40.5701L65.3492 43.8601L66.3492 45.4901L66.9192 46.4201C67.2192 46.9201 67.5392 47.4201 67.9192 47.9301C68.0592 48.2401 68.2192 48.5701 68.3292 48.8501V49.5001C68.3031 49.7363 68.2132 49.961 68.0692 50.1501C67.9075 50.3343 67.7102 50.484 67.4892 50.5901C66.9354 50.8165 66.3308 50.889 65.7392 50.8001C65.3792 50.8001 65.0092 50.7101 64.6292 50.6401C64.4392 50.6401 64.2592 50.5601 64.0692 50.5201L63.5792 50.4001C61.8892 49.9801 60.2692 49.4701 58.6592 48.9201C57.8692 48.6501 57.0292 48.3401 56.2792 48.0601C55.5292 47.7801 54.7492 47.5501 53.9592 47.3301C52.4207 46.8627 50.8449 46.5281 49.2492 46.3301C48.5227 46.2288 47.7857 46.2288 47.0592 46.3301C46.8074 46.368 46.5659 46.4565 46.3492 46.5901C46.2994 46.6209 46.2579 46.6635 46.2283 46.714C46.1986 46.7646 46.1818 46.8216 46.1792 46.8801C45.9992 47.9401 46.7892 49.2301 47.8992 50.3001C50.0062 52.234 52.3641 53.8754 54.9092 55.1801C57.4992 56.5701 60.1692 57.7901 62.9092 59.1801C63.6438 59.5336 64.3436 59.9555 64.9992 60.4401C65.5877 60.9604 66.1453 61.5147 66.6692 62.1001L69.6692 65.4101C71.6105 67.5619 73.6952 69.5799 75.9092 71.4501C76.8906 72.244 77.9493 72.9375 79.0692 73.5201C79.6256 73.8001 80.1963 74.0504 80.7792 74.2701C81.4293 74.5073 82.0668 74.7776 82.6892 75.0801C85.0989 76.3072 87.349 77.8252 89.3892 79.6001C91.9829 81.8073 94.4126 84.2003 96.6592 86.7601C98.9078 89.2792 101.021 91.9163 102.989 94.6601C104.219 96.3601 103.769 96.3701 102.289 95.3001C101.549 94.7601 100.549 93.9501 99.3792 92.9401C98.2092 91.9301 96.9892 90.6501 95.6992 89.2401C93.4519 86.7312 91.0718 84.3444 88.5692 82.0901C86.1891 79.872 83.4503 78.0732 80.4692 76.7701C79.8392 76.4901 78.7592 76.1301 77.9592 75.7001C77.1315 75.2736 76.333 74.7925 75.5692 74.2601C74.1026 73.2112 72.7216 72.0476 71.4392 70.7801C68.9092 68.3001 66.7992 65.4701 64.5292 63.0001C64.217 62.6462 63.883 62.3122 63.5292 62.0001C63.1633 61.7281 62.7753 61.4872 62.3692 61.2801C61.4892 60.8001 60.5492 60.3401 59.6092 59.8801C57.7292 59.0001 55.7992 58.0601 53.9092 57.0501C51.971 56.0522 50.1093 54.9124 48.3392 53.6401C47.4239 52.9751 46.5765 52.2214 45.8092 51.3901C44.9392 50.4893 44.3218 49.3753 44.0192 48.1601C43.947 47.8113 43.9101 47.4562 43.9092 47.1001C43.9092 46.9201 43.9092 46.7501 43.9092 46.5601C43.9534 46.3391 44.0239 46.1243 44.1192 45.9201C44.3076 45.5165 44.6012 45.171 44.9692 44.9201C45.2736 44.7034 45.6114 44.5378 45.9692 44.4301C47.1708 44.1395 48.4179 44.0885 49.6392 44.2801C51.8848 44.5787 54.0954 45.0979 56.2392 45.8301C58.3592 46.6001 60.3492 47.3001 62.4492 47.9001C62.9692 48.0501 63.4492 48.1901 63.9992 48.3101C64.2392 48.3701 64.4592 48.4201 64.6992 48.4601C64.8156 48.4703 64.9327 48.4703 65.0492 48.4601C65.1592 48.4601 65.3392 48.4601 65.3492 48.3301C65.256 48.1141 65.1386 47.9095 64.9992 47.7201L64.4892 46.8901C61.6392 42.0001 58.8192 37.0001 55.9092 32.0001C53.6446 28.239 51.8639 24.2071 50.6092 20.0001C50.2792 18.9501 49.9792 17.9001 49.7192 16.8401C49.4219 15.7619 49.2112 14.6618 49.0892 13.5501C48.9346 12.4153 48.9346 11.2648 49.0892 10.1301C49.1445 9.81866 49.2317 9.51373 49.3492 9.22008C49.4875 8.86665 49.6987 8.54635 49.9692 8.28008C50.257 8.03076 50.6059 7.86234 50.9801 7.79206C51.3543 7.72178 51.7405 7.75216 52.0992 7.88008C52.9959 8.18 53.813 8.67916 54.4892 9.34008C55.1286 9.95264 55.711 10.6221 56.2292 11.3401C57.2109 12.7164 58.106 14.1525 58.9092 15.6401C60.4692 18.4901 62.3192 21.2401 64.0992 24.0101L66.4792 27.6501C69.4792 32.2401 70.1792 33.8401 70.2592 35.1501C70.2826 35.4429 70.2826 35.7372 70.2592 36.0301C70.1092 36.7201 68.6792 35.0301 66.4592 31.7001C64.8192 29.2501 63.1292 26.7701 61.4592 24.2201C60.6325 22.9534 59.8092 21.6634 58.9892 20.3501C58.1792 19.0701 57.3592 17.6401 56.6492 16.3501C55.9557 15.0439 55.1773 13.7845 54.3192 12.5801C53.6274 11.5239 52.6728 10.6658 51.5492 10.0901H51.4192C51.341 10.2757 51.2872 10.4706 51.2592 10.6701C51.2065 10.9808 51.1764 11.295 51.1692 11.6101C51.1555 13.0375 51.3338 14.4602 51.6992 15.8401C52.7559 20.2457 54.3512 24.5045 56.4492 28.5201L63.4492 40.6001L63.4292 40.5701Z" fill="#231F20"/>
<path d="M111.09 86.63C110.53 87.09 109.9 87.47 109.3 87.88C108.671 88.2471 108.024 88.5809 107.36 88.88C106.87 89.07 106.36 89.34 105.91 89.5C105.024 89.7575 104.117 89.9382 103.2 90.04C102.75 90.04 102.3 90.17 101.85 90.17H100.5C99.6997 90.17 98.9197 90.08 98.1297 90.08C97.122 90.0965 96.1226 89.8953 95.1997 89.49C94.9097 89.36 95.0198 89.03 95.3498 88.69C95.7158 88.284 96.2099 88.0158 96.7497 87.93L99.5397 88.05C100.01 88.05 100.46 88.05 100.92 88.05C101.386 88.08 101.854 88.08 102.32 88.05C103.458 87.9779 104.573 87.6965 105.61 87.22C106.196 87.0051 106.765 86.7443 107.31 86.44C107.58 86.28 107.87 86.14 108.14 85.97L108.91 85.43C109.236 85.2087 109.544 84.9612 109.83 84.69C110.133 84.4418 110.42 84.1746 110.69 83.89C111.541 83.036 112.287 82.0824 112.91 81.05C113.315 80.2196 113.65 79.3566 113.91 78.47C113.98 78.27 114.02 78.07 114.1 77.88C114.46 77.21 114.79 77.08 115.35 77.13H115.67C115.91 77.13 116.27 77.64 116.27 78.29C116.011 80.1769 115.255 81.9611 114.08 83.46C113.21 84.6415 112.203 85.7157 111.08 86.66L111.09 86.63Z" fill="#231F20"/>
<path d="M115.329 88.9999C115.28 88.8691 115.209 88.7475 115.119 88.6399C115.072 88.5707 115.001 88.521 114.919 88.4999C114.886 88.5023 114.854 88.5116 114.825 88.5271C114.796 88.5426 114.77 88.564 114.749 88.5899C114.703 88.6422 114.672 88.7058 114.657 88.7742C114.643 88.8426 114.648 88.9135 114.669 88.9799C114.696 89.0609 114.733 89.1382 114.779 89.2099L114.839 89.3299V89.4299V89.4999L114.919 89.7199C115.12 90.2248 115.209 90.7673 115.179 91.3099C115.179 91.5699 115.099 91.8499 115.039 92.0899C114.969 92.3587 114.865 92.6175 114.729 92.8599C114.515 93.2937 114.163 93.6451 113.729 93.8599C113.235 94.0549 112.684 94.0549 112.189 93.8599C111.706 93.6541 111.271 93.3512 110.909 92.9699C110.779 92.8399 110.669 92.7099 110.559 92.5899L110.399 92.3999C110.399 92.3399 110.399 92.3999 110.399 92.3399L110.269 92.1399L109.979 91.6599C109.866 91.4749 109.735 91.3008 109.589 91.1399C109.503 91.0679 109.4 91.0198 109.289 91.0005C109.179 90.9812 109.065 90.9913 108.959 91.0299C108.869 91.0682 108.794 91.1349 108.746 91.2197C108.697 91.3045 108.677 91.4028 108.689 91.4999C108.731 91.6979 108.798 91.8895 108.889 92.0699L109.189 92.6999L109.259 92.8799L109.369 93.1799C109.429 93.389 109.47 93.6033 109.489 93.8199C109.504 93.9528 109.504 94.087 109.489 94.2199C109.458 94.3937 109.411 94.5643 109.349 94.7299C109.197 95.0297 108.951 95.2719 108.649 95.4199C108.523 95.4755 108.393 95.5222 108.259 95.5599H107.969C107.757 95.5896 107.542 95.5896 107.329 95.5599C107.126 95.5161 106.928 95.449 106.739 95.3599C106.195 95.0602 105.708 94.6676 105.299 94.1999C104.899 93.7899 104.649 93.4499 104.299 93.1199C104.18 92.9817 104.042 92.8606 103.889 92.7599C103.82 92.7104 103.734 92.689 103.649 92.6999C103.549 92.6999 103.499 92.8399 103.449 92.9099C103.365 93.2477 103.412 93.6049 103.579 93.9099L103.979 94.7799C103.997 94.8176 104.005 94.8585 104.005 94.8999C104.005 94.9413 103.997 94.9822 103.979 95.0199C103.978 95.0644 103.964 95.1077 103.939 95.1448C103.915 95.1819 103.88 95.2113 103.839 95.2299C103.659 95.2299 103.439 95.2299 102.919 94.9499C102.133 94.4148 101.455 93.7363 100.919 92.9499C100.624 92.5344 100.394 92.0756 100.239 91.5899C100.137 91.229 100.116 90.8497 100.179 90.4799C100.302 89.9494 100.56 89.4599 100.929 89.0599C101.064 88.9357 101.208 88.822 101.359 88.7199C101.514 88.6329 101.678 88.5657 101.849 88.5199C102.09 88.467 102.339 88.467 102.579 88.5199C103.21 88.6327 103.789 88.9446 104.229 89.4099C105.01 90.1995 105.748 91.0307 106.439 91.8999L106.989 92.4899L107.259 92.7699C107.388 92.886 107.525 92.9929 107.669 93.0899C107.669 93.1399 107.759 92.9899 107.669 93.3799C107.669 93.4999 107.669 93.6299 107.609 93.6799V93.7599C107.609 94.3699 107.609 92.9299 107.609 93.0799C107.626 93.1954 107.652 93.3092 107.689 93.4199C107.702 93.5128 107.702 93.6069 107.689 93.6999C107.689 93.7599 107.689 93.8299 107.759 93.8999C107.796 93.9677 107.839 94.0314 107.889 94.0899C107.889 94.0899 107.819 94.0399 107.789 94.0399C107.743 94.0307 107.696 94.0307 107.649 94.0399H107.579H107.409C107.204 94.0248 106.997 94.0486 106.799 94.1099C106.799 94.1099 106.799 94.0499 106.799 93.9599C106.708 93.7151 106.597 93.4777 106.469 93.2499L106.069 92.4899C105.575 91.6796 105.236 90.7843 105.069 89.8499C105.008 89.3065 105.07 88.7564 105.249 88.2399C105.412 87.8186 105.677 87.4442 106.019 87.1499C106.392 86.828 106.851 86.6228 107.339 86.5599C107.748 86.5056 108.164 86.568 108.539 86.7399C108.892 86.901 109.228 87.0988 109.539 87.3299C110.469 88.2166 111.306 89.1949 112.039 90.2499L112.369 90.6399L112.549 90.8299C112.669 90.9499 112.789 91.0799 112.889 91.1599C112.954 91.217 113.024 91.2672 113.099 91.3099C113.017 91.4956 112.957 91.6903 112.919 91.8899C112.919 92.0199 112.919 92.0699 112.919 92.0099L112.809 91.8799C112.731 91.8042 112.647 91.7341 112.559 91.6699L112.379 91.5599C112.413 91.4585 112.44 91.3549 112.459 91.2499C112.474 91.1605 112.474 91.0693 112.459 90.9799C112.471 90.9305 112.471 90.8792 112.459 90.8299V90.7399L112.339 90.5499C111.95 89.9663 111.593 89.3621 111.269 88.7399C111.037 88.236 110.882 87.7 110.809 87.1499C110.684 86.1078 110.906 85.0536 111.439 84.1499C111.562 83.9235 111.732 83.726 111.937 83.5708C112.142 83.4155 112.378 83.3061 112.629 83.2499C113.073 83.2216 113.515 83.326 113.899 83.5499C114.437 83.8546 114.923 84.2427 115.339 84.6999C115.877 85.2937 116.372 85.9254 116.819 86.5899L117.519 87.5899C117.729 87.8799 117.849 88.0399 118.009 88.2399C118.067 88.3213 118.13 88.3982 118.199 88.4699C118.199 88.3899 118.059 88.6199 117.979 88.7799C117.9 88.8754 117.845 88.9886 117.819 89.1099C117.819 89.1099 117.819 89.1099 117.819 89.1699C117.79 89.1622 117.759 89.1622 117.729 89.1699C117.627 89.1565 117.522 89.1565 117.419 89.1699C117.356 89.1665 117.293 89.1665 117.229 89.1699H117.039L116.939 88.9099C116.749 88.4899 116.469 88.0099 116.199 87.5399L115.199 85.8899C114.431 84.6861 113.844 83.3753 113.459 81.9999C113.314 81.4793 113.283 80.9334 113.369 80.3999C113.43 80.094 113.569 79.809 113.772 79.5724C113.975 79.3359 114.236 79.1559 114.529 79.0499C114.856 78.9538 115.203 78.9538 115.529 79.0499C115.764 79.1191 115.985 79.231 116.179 79.3799C116.776 79.6772 117.337 80.043 117.849 80.4699C118.529 81.1099 119.239 81.8099 119.979 82.4699C120.409 82.8499 120.609 83.0099 120.849 83.2099L121.579 83.8099L122.879 84.8099C124.489 86.0799 124.879 86.5699 124.789 87.4599C124.8 87.6631 124.8 87.8667 124.789 88.0699C124.689 88.6799 123.559 88.6499 122.199 87.7799C120.389 86.6999 117.619 84.2699 118.199 84.9599C118.129 84.9599 118.199 85.1499 118.199 85.1299L118.329 85.3699L118.999 86.5999C119.267 87.0868 119.5 87.5913 119.699 88.1099L119.789 88.4199C119.831 88.5741 119.861 88.7312 119.879 88.8899C119.889 89.0297 119.889 89.17 119.879 89.3099V89.4199C119.879 89.4899 119.879 89.5599 119.879 89.6299C119.879 89.6999 119.789 89.8999 119.739 90.0299C119.574 90.3722 119.318 90.6628 118.999 90.8699C118.587 91.1239 118.097 91.2199 117.619 91.1399C117.4 91.0987 117.187 91.0245 116.989 90.9199C116.925 90.8909 116.865 90.854 116.809 90.8099L116.689 90.7299C116.578 90.6421 116.471 90.5486 116.369 90.4499C116.248 90.3235 116.135 90.19 116.029 90.0499C115.839 89.8099 115.709 89.6199 115.569 89.4099L115.449 89.2399V89.1699L115.329 88.9999Z" fill="#3F8D34"/>
<path d="M7.60934 27.0001L7.04934 27.1801C6.75724 27.2682 6.46001 27.3383 6.15934 27.3901C5.84934 27.3901 5.53934 27.3901 5.21934 27.4601C4.93356 27.4526 4.64905 27.4191 4.36934 27.3601C4.23845 27.3003 4.1144 27.2265 3.99934 27.1401L3.81934 27.0001L3.90934 26.9201L3.82934 26.8501C3.59934 26.6801 3.60934 26.3701 3.58934 26.0501C3.60981 25.6887 3.68049 25.3319 3.79934 24.9901C3.82349 24.7814 3.86023 24.5743 3.90934 24.3701L4.05934 23.9201C4.35934 23.1001 4.68934 22.3201 5.05934 21.5301L6.05934 19.2001L6.50934 18.0001L6.66934 17.6801L6.48934 17.5701L5.77934 17.1501C5.02934 16.7001 4.26934 16.2401 3.52934 15.7201C3.15934 15.4501 2.78934 15.1801 2.42934 14.8601C2.24726 14.7098 2.07366 14.5496 1.90934 14.3801C1.81776 14.2879 1.73098 14.1911 1.64934 14.0901C1.55038 13.97 1.46015 13.843 1.37934 13.7101C1.05114 13.2261 0.857841 12.6635 0.819336 12.0801C0.834608 11.8215 0.913623 11.5707 1.04934 11.3501C1.2221 11.1412 1.43671 10.9709 1.67934 10.8501C1.93399 10.7129 2.20207 10.6024 2.47934 10.5201L2.68934 10.4501H2.81934L3.08934 10.3801C3.79934 10.1901 4.48934 10.0601 5.17934 9.93006C5.86934 9.80006 6.56934 9.69006 7.25934 9.59006L8.25934 9.44006L8.87934 9.36006C8.92064 9.30848 8.95432 9.25122 8.97934 9.19006L9.19934 8.78006L9.70934 7.78006C10.0593 7.12006 10.4093 6.47006 10.7793 5.78006C11.1493 5.09006 11.5193 4.48006 11.9293 3.84006C12.1293 3.52006 12.3393 3.20006 12.5593 2.84006L12.9093 2.37006C13.0393 2.22006 13.1393 2.07006 13.3593 1.85006C13.6684 1.47087 14.0936 1.20382 14.5693 1.09006C14.8082 1.07107 15.046 1.13849 15.2393 1.28006C15.4508 1.40515 15.6456 1.55634 15.8193 1.73006C16.1092 2.01007 16.3705 2.31826 16.5993 2.65006C16.8193 2.94006 17.0093 3.23006 17.1993 3.52006C17.927 4.67484 18.5946 5.86643 19.1993 7.09006C19.5993 7.86006 19.9793 8.64006 20.3493 9.43006L20.5893 9.95006C20.5893 10.0201 20.6393 10.1401 20.7193 10.1701L21.6393 10.3201C23.3293 10.6101 25.0193 10.9401 26.6393 11.3201C28.7293 11.8201 25.7293 13.1101 21.8393 12.4201L20.5393 12.1801L19.3493 12.0001C19.1324 11.6268 18.9484 11.2353 18.7993 10.8301C18.4193 9.94006 18.0993 9.24006 17.7193 8.44006C17.0025 6.91228 16.1874 5.43252 15.2793 4.01006L14.9093 3.58006L14.7293 3.36006C14.7293 3.36006 14.7293 3.29006 14.6593 3.31006C14.5893 3.33006 14.7093 3.20006 14.3693 3.62006C14.0293 4.04006 13.8893 4.27006 13.6493 4.62006C12.7293 6.02006 11.8693 7.55006 11.0293 9.08006L10.6493 9.79006L10.3693 10.3301C10.2593 10.5401 10.1493 10.7401 10.0293 10.9401L8.54934 11.1301L7.54934 11.2801C6.86934 11.3801 6.19934 11.5001 5.54934 11.6301C4.89934 11.7601 4.21934 11.9101 3.54934 12.0801L3.14934 12.2001L2.97934 12.2601C2.88934 12.2601 2.73934 12.3701 2.79934 12.4901C2.82238 12.5664 2.85971 12.6377 2.90934 12.7001L2.97934 12.8001L3.14934 13.0101C3.45368 13.3438 3.78846 13.6485 4.14934 13.9201C4.78732 14.4234 5.45521 14.8875 6.14934 15.3101L7.24934 16.0001L8.99934 17.0001L7.75934 19.7001L6.84934 21.7801C6.54934 22.4801 6.26934 23.1801 5.98934 23.8701L5.64934 24.7801C5.64934 24.9301 5.53934 25.1001 5.49934 25.2701C5.45934 25.4401 5.49934 25.4301 5.49934 25.4701H5.70934C5.85534 25.4898 6.00334 25.4898 6.14934 25.4701H6.37934C6.52492 25.4345 6.66846 25.3911 6.80934 25.3401C7.3971 25.1361 7.97155 24.8956 8.52934 24.6201C9.66855 24.0374 10.7617 23.3688 11.7993 22.6201C12.9125 21.8605 13.9536 21.0002 14.9093 20.0501C15.3293 20.4601 15.7993 20.9001 16.1993 21.2601L17.0993 22.0501C17.7093 22.5801 18.3393 23.0501 18.9793 23.5501C19.6204 24.0307 20.2881 24.4748 20.9793 24.8801C21.3093 25.0901 21.6593 25.2501 21.9793 25.4301L22.4993 25.6601C22.6496 25.7219 22.8031 25.7753 22.9593 25.8201C23.1843 25.8962 23.423 25.9235 23.6593 25.9001C23.7593 25.9001 23.9293 25.9001 23.9193 25.7501C23.9174 25.6285 23.9006 25.5076 23.8693 25.3901L23.7793 25.0601L23.6193 24.6201C23.4893 24.2301 23.3393 23.8401 23.1893 23.4501C22.8793 22.6801 22.5593 21.9101 22.1893 21.1401L21.0293 18.4401C20.8293 17.9601 20.6093 17.4401 20.4293 16.9601L22.4293 16.6401L24.3293 16.2901L25.4793 16.1101C25.956 16.0191 26.4479 16.0501 26.9093 16.2001C27.0789 16.2399 27.2459 16.29 27.4093 16.3501C27.6293 16.4401 27.5093 16.7401 27.0393 17.0701C26.3405 17.4989 25.5775 17.8128 24.7793 18.0001L23.3493 18.3501L23.0693 18.4601C23.0693 18.5201 23.1493 18.5801 23.1793 18.6301L23.2293 18.7001C23.2321 18.72 23.2321 18.7402 23.2293 18.7601L23.3293 18.9801L24.1093 20.7801C24.3693 21.3801 24.6193 21.9901 24.8593 22.6201L25.2193 23.6201L25.3893 24.1101L25.4693 24.3601L25.5893 24.7701C25.9793 26.0201 26.0593 27.3201 24.9393 27.6401L24.5893 27.7901C24.4495 27.8005 24.3091 27.8005 24.1693 27.7901C23.873 27.8101 23.5757 27.8101 23.2793 27.7901C22.9384 27.7515 22.6029 27.6744 22.2793 27.5601C22.0908 27.5088 21.9068 27.4419 21.7293 27.3601C20.406 26.7819 19.157 26.0466 18.0093 25.1701C17.2993 24.6501 16.6193 24.1701 15.9593 23.5601L14.9593 22.7101L14.9093 22.6101C14.6093 22.8801 14.2893 23.1201 13.9693 23.3801C13.3293 23.8701 12.6793 24.3801 11.9693 24.7701C10.6074 25.6679 9.15227 26.4156 7.62934 27.0001H7.60934Z" fill="#231F20"/>
<path d="M89.3396 23.6299L89.5596 24.4099C89.6724 24.78 89.7593 25.1576 89.8196 25.5399C89.8977 25.838 89.9058 26.1502 89.8434 26.452C89.7809 26.7539 89.6496 27.0372 89.4596 27.2799C89.2087 27.4323 88.94 27.5532 88.6595 27.6399C88.3265 27.6607 87.9926 27.6607 87.6595 27.6399C87.3218 27.584 86.9878 27.5072 86.6595 27.4099C86.3535 27.3421 86.0577 27.2345 85.7796 27.0899C85.1695 26.8263 84.581 26.5154 84.0196 26.1599C83.0969 25.5254 82.212 24.8375 81.3695 24.0999C80.9295 23.7599 80.5095 23.3932 80.1095 22.9999L79.5095 22.4399L79.3196 22.2399L79.1795 22.0999C79.1114 22.0184 79.0379 21.9416 78.9596 21.8699L78.5696 22.2399L78.1895 22.5799L77.7595 22.9499C76.8463 23.8219 75.7912 24.5321 74.6396 25.0499C73.8996 25.3099 73.7695 23.1199 74.8395 22.3899C75.3995 21.9999 75.9395 21.5999 76.4795 21.1899L76.8695 20.8899C77.0195 20.7699 77.0695 20.7399 77.3995 20.4499L78.9095 18.9999L80.9095 20.9999L82.0095 22.1299C83.0896 23.1711 84.2996 24.0685 85.6095 24.7999C85.9316 24.997 86.2656 25.174 86.6095 25.3299L86.8796 25.4599C86.9543 25.4891 87.0312 25.5125 87.1095 25.5299C87.1989 25.5452 87.2902 25.5452 87.3796 25.5299C87.4496 25.5299 87.5995 25.5299 87.6095 25.4599C87.6385 25.2911 87.6385 25.1186 87.6095 24.9499V24.7799C87.6095 24.7099 87.6095 24.6899 87.5395 24.5399L87.3196 23.8099C87.1696 23.3199 86.9995 22.8099 86.8295 22.3499L86.0196 20.1399L84.8796 17.2799C84.8796 17.2799 84.8095 17.1499 84.8295 17.1099C85.6395 16.9799 86.4695 16.8299 87.2995 16.6299C87.8495 16.4799 88.3895 16.3099 88.9295 16.1499L89.6495 15.8999C90.5395 15.6099 90.7795 15.6399 91.1895 16.0499C91.2795 16.1499 91.3996 16.2299 91.4896 16.3299C91.8096 16.6299 91.4895 17.2199 90.7895 17.5799C90.0224 17.9479 89.2222 18.2425 88.3995 18.4599L87.7796 18.6199H87.6396C88.2696 20.1699 88.8796 21.7799 89.4196 23.4499L89.3396 23.6299Z" fill="#231F20"/>
<path d="M70.7993 9.32997L72.0693 9.15997L72.6693 9.07997H72.7893L72.8493 9.00997L73.1193 8.48997L73.7293 7.35997C74.1293 6.59997 74.5493 5.84997 74.9893 5.10997C75.4491 4.26515 75.9566 3.44716 76.5093 2.65997C76.6393 2.47997 76.7893 2.28997 76.9393 2.10997C77.0893 1.92997 77.1193 1.89997 77.2493 1.76997C77.3726 1.63625 77.5064 1.51253 77.6493 1.39997C77.8989 1.1709 78.2069 1.01518 78.5393 0.949969C78.8632 0.903417 79.1931 0.974363 79.4693 1.14997C79.6693 1.29997 79.8493 1.47997 80.0393 1.63997C80.2012 1.79198 80.3516 1.95576 80.4893 2.12997C80.6993 2.39997 80.8793 2.66997 81.0593 2.92997C81.4093 3.46997 81.7193 4.00997 82.0093 4.54997C82.5993 5.63997 83.1293 6.74997 83.6393 7.85997L84.5393 9.85997L84.6793 10.18V10.3C84.6793 10.3 84.7593 10.3 84.7993 10.3L85.6293 10.43C87.4694 10.6425 89.2933 10.9766 91.0893 11.43C92.1993 11.76 90.4393 13.27 88.3393 12.91L85.5493 12.4L83.6693 12.04L83.3793 12C83.3225 11.898 83.2757 11.7909 83.2393 11.68L82.9693 11.03L82.6493 10.24C81.9393 8.53997 81.1893 6.81997 80.3693 5.16997C80.1302 4.6945 79.8631 4.23369 79.5693 3.78997C79.4298 3.57909 79.2796 3.37549 79.1193 3.17997C79.0555 3.11314 78.9851 3.05284 78.9093 2.99997C78.8925 2.98242 78.8723 2.96846 78.85 2.95892C78.8276 2.94939 78.8036 2.94447 78.7793 2.94447C78.755 2.94447 78.731 2.94939 78.7086 2.95892C78.6863 2.96846 78.6661 2.98242 78.6493 2.99997C78.5639 3.06013 78.4895 3.13455 78.4293 3.21997C78.0728 3.66277 77.7391 4.12336 77.4293 4.59997C76.8393 5.51997 76.2793 6.49997 75.7393 7.47997L73.9593 10.8L72.7293 10.96C71.1893 11.17 69.6293 11.4 68.1293 11.73L67.2893 11.95C67.1155 11.9944 66.945 12.0512 66.7793 12.12C66.6293 12.17 66.4593 12.28 66.5293 12.46C66.5496 12.6244 66.6078 12.7819 66.6993 12.92C66.8214 13.1159 66.9657 13.2971 67.1293 13.46C67.3182 13.6618 67.5221 13.849 67.7393 14.02C68.1776 14.3868 68.6421 14.7211 69.1293 15.02C69.5093 15.27 69.8993 15.49 70.2993 15.71L71.5893 16.38L72.5293 16.86L72.7593 16.99L72.9093 17C72.9093 17 72.9093 17.08 72.9093 17.12L72.7193 17.6L72.0893 19.26C71.9493 19.64 71.8293 20.01 71.6793 20.38C71.1193 21.76 70.8193 22.15 70.2293 22.26C70.0978 22.293 69.9641 22.3164 69.8293 22.33C69.4193 22.33 69.3593 21.64 69.6893 20.58C69.9393 19.79 70.1993 19 70.4793 18.21L70.5893 17.92V17.83C70.5893 17.83 70.4993 17.83 70.4793 17.83H70.4093L70.2593 17.75L69.9093 17.55L69.3393 17.23C68.9493 17.01 68.5693 16.79 68.1893 16.55C67.3699 16.0599 66.6055 15.4833 65.9093 14.83C65.7793 14.69 65.6393 14.56 65.5093 14.4L65.3093 14.15C65.2191 14.0279 65.1357 13.9011 65.0593 13.77C64.7268 13.2642 64.5432 12.6751 64.5293 12.07V11.66C64.6093 11.55 64.6093 11.39 64.6893 11.28C64.8405 11.0486 65.038 10.8512 65.2693 10.7C65.5376 10.5461 65.8186 10.4156 66.1093 10.31L66.5293 10.16L66.7993 10.09C68.088 9.75639 69.3931 9.48937 70.7093 9.28997L70.7993 9.32997Z" fill="#231F20"/>
<path d="M35.63 13.0799L35.43 13.1399H35.33C35.33 13.1399 35.24 13.1399 35.25 13.2099C35.2407 13.2392 35.2407 13.2706 35.25 13.2999V13.3599L35.43 13.5899C35.737 13.9302 36.0714 14.2445 36.43 14.5299C37.2374 15.1513 38.0824 15.7223 38.96 16.2399L39.34 16.4599L39.9 16.7799L41.29 17.5499L40.42 19.4699C39.68 21.0599 38.94 22.6599 38.26 24.2699L37.91 25.3999C37.8331 25.5715 37.7696 25.7486 37.72 25.9299C37.7103 25.9795 37.7103 26.0304 37.72 26.0799C37.72 26.1299 37.8 26.0799 37.84 26.1299C37.9293 26.1452 38.0206 26.1452 38.11 26.1299C38.2066 26.1349 38.3034 26.1349 38.4 26.1299L38.82 26.0299C40.2533 25.5469 41.6258 24.8992 42.91 24.0999C44.58 23.0999 46.17 21.8899 47.7 20.7599C48.16 20.4099 48.47 20.7599 48.4 21.4899C48.3158 21.9827 48.1334 22.4535 47.8637 22.8744C47.594 23.2952 47.2425 23.6576 46.83 23.9399C45.1052 25.1857 43.2512 26.2418 41.3 27.0899C40.8 27.2899 40.3 27.4899 39.76 27.6599C39.63 27.6599 39.5 27.7499 39.36 27.7799L38.86 27.9099C38.4058 28.0085 37.9442 28.0687 37.48 28.0899C37.2865 28.0888 37.0943 28.0585 36.91 27.9999C36.72 27.9999 36.49 27.9999 36.38 27.8399L36.16 27.6999L36.06 27.6299C36 27.6299 36.13 27.5599 36.06 27.5699H36.01C35.945 27.5207 35.8903 27.4592 35.8491 27.3888C35.808 27.3185 35.781 27.2407 35.77 27.1599C35.7408 26.3216 35.9231 25.4894 36.3 24.7399L37.79 21.2299L38.54 19.4799L38.88 18.6999L39.02 18.4099L38.73 18.2399L37.91 17.6999C37.32 17.3399 36.74 16.9599 36.16 16.5599C35.5679 16.1478 35.0064 15.6932 34.48 15.1999C34.1829 14.8998 33.9242 14.5639 33.71 14.1999C33.4241 13.7811 33.2518 13.2953 33.21 12.7899V12.6299C33.21 11.9799 33.9 11.6999 34.49 11.4699L34.92 11.3299L35.25 11.2399L35.89 11.0899C36.75 10.8899 37.6 10.7399 38.44 10.5999L39.98 10.3599L41.24 10.1899L42.33 8.42994L43.6 6.42994C44.15 5.57994 44.69 4.73994 45.29 3.91994C45.44 3.71994 45.6 3.50994 45.77 3.30994L46.04 2.98994C46.17 2.84994 46.31 2.72994 46.45 2.58994C46.7171 2.34228 47.0342 2.15474 47.38 2.03994C47.5431 1.99118 47.716 1.98487 47.8822 2.02162C48.0485 2.05837 48.2026 2.13696 48.33 2.24994C48.5785 2.47994 48.8029 2.73458 49 3.00994L49.45 3.56994C50.45 4.84994 50.63 5.32994 50.45 5.91994C50.4156 6.05603 50.3722 6.18966 50.32 6.31994C50.11 6.68994 49.47 6.31994 48.66 5.45994L47.78 4.45994C47.58 4.22994 47.6 4.27994 47.56 4.24994C47.52 4.21994 47.5 4.24994 47.47 4.24994C47.44 4.24994 47.37 4.34994 47.35 4.38994L47.26 4.49994L47.06 4.72994L46.67 5.23994C45.67 6.62994 44.67 8.18994 43.67 9.74994L42.37 11.9099L40.2 12.2199L38.64 12.4699C37.6299 12.6287 36.6286 12.839 35.64 13.0999L35.63 13.0799Z" fill="#231F20"/>
<path d="M11.2695 25.91C10.3583 26.4833 9.41321 27.0009 8.43949 27.46C7.94949 27.68 7.43949 27.9 6.92949 28.08C6.65949 28.17 6.39949 28.26 6.11949 28.33L5.69949 28.44C5.54949 28.44 5.45949 28.44 5.18949 28.53C4.71174 28.5957 4.22725 28.5957 3.74949 28.53L3.31949 28.3C3.31949 28.2 3.31949 28.23 3.25949 28.18L3.16949 28.09C3.16949 28.02 3.07949 27.97 3.06949 27.89C2.97927 27.5255 2.97927 27.1445 3.06949 26.78C3.14097 26.3636 3.24121 25.9526 3.36949 25.55L3.65949 24.55L4.28949 22.64L5.60949 18.9L5.73949 18.55C5.54949 18.43 4.47949 17.85 3.73949 17.4C3.05147 17.0076 2.399 16.5559 1.78949 16.05C1.0777 15.4895 0.608674 14.6768 0.479492 13.78C0.479492 13.15 0.909492 13.35 1.33949 13.63C1.86746 13.9038 2.36093 14.2395 2.80949 14.63C3.40666 15.1439 4.0493 15.6025 4.72949 16L5.81949 16.67L7.68949 17.77L7.06949 19.5L6.70949 20.42L5.99949 22.26C5.65984 23.1273 5.3661 24.0119 5.11949 24.91C4.98949 25.36 4.86949 25.82 4.76949 26.26L4.68949 26.63C4.67913 26.7097 4.67913 26.7904 4.68949 26.87C4.68949 26.94 4.77949 26.92 4.81949 26.94C4.9025 26.9505 4.98649 26.9505 5.06949 26.94C5.22482 26.9214 5.37857 26.8913 5.52949 26.85C5.96247 26.7453 6.38699 26.6082 6.79949 26.44C7.65781 26.0978 8.49002 25.6934 9.28949 25.23C10.3828 24.615 11.429 23.9198 12.4195 23.15C12.6795 22.95 12.8995 22.76 13.1595 22.54C13.4195 22.32 13.8495 21.9 14.1595 21.59L15.1595 22.59L15.8895 23.24C16.3695 23.66 16.8895 24.07 17.3695 24.46C18.5222 25.3346 19.7701 26.076 21.0895 26.67C21.3695 26.81 21.6495 26.87 21.9295 26.99C22.2095 27.11 22.3995 27.12 22.5695 27.19C22.7088 27.2246 22.8457 27.268 22.9795 27.32C23.1717 27.4138 23.3369 27.5548 23.4595 27.73C23.5295 27.82 23.6295 27.91 23.6895 28C23.7495 28.09 23.7395 28.31 23.4795 28.46C23.0972 28.6547 22.6625 28.7213 22.2395 28.65C20.8076 28.3512 19.4484 27.7736 18.2395 26.95C17.0333 26.1733 15.8867 25.3076 14.8095 24.36L14.1595 23.8L14.0695 23.88C13.7795 24.14 13.4695 24.37 13.1695 24.61C12.5595 25.08 11.9295 25.52 11.2895 25.94L11.2695 25.91Z" fill="#231F20"/>
<path d="M38.219 22.8699L37.219 24.9499L36.749 25.9499L36.529 26.4699L36.419 26.7299V26.7899C36.419 26.8999 36.299 27.0999 36.479 27.0899H36.659H36.909H37.249C37.7235 27.0392 38.1944 26.959 38.659 26.8499C39.6137 26.651 40.5528 26.3836 41.469 26.0499C42.2781 25.7687 43.0611 25.4173 43.809 24.9999C44.809 24.4399 45.629 23.7699 46.499 23.1999C46.769 23.0199 47.049 23.3299 47.099 23.8199C47.1257 24.1319 47.0705 24.4454 46.939 24.7295C46.8075 25.0136 46.6041 25.2584 46.349 25.4399C44.3282 26.8063 42.053 27.7517 39.659 28.2199L37.779 28.5899C37.439 28.5899 37.139 28.6999 36.779 28.7199C36.281 28.7599 35.7799 28.7329 35.289 28.6399L34.909 28.4499L34.749 28.3599C34.749 28.2599 34.679 28.2499 34.659 28.1899C34.409 27.7699 34.659 27.1099 34.829 26.5099C34.949 26.1499 34.999 26.0599 35.079 25.8499L35.319 25.2999C35.629 24.5699 35.969 23.8499 36.319 23.1399L37.589 20.5199L38.029 19.6399L38.279 19.1499L36.599 18.1499C35.5675 17.6116 34.5839 16.986 33.659 16.2799C33.442 16.1014 33.2412 15.904 33.059 15.6899C32.7803 15.3893 32.605 15.0073 32.559 14.5999C32.5479 14.476 32.5757 14.3516 32.6384 14.2441C32.7011 14.1366 32.7957 14.0513 32.909 13.9999C32.9921 13.9328 33.0871 13.8819 33.189 13.8499C33.529 13.7899 33.759 14.0599 34.049 14.4099C34.6612 15.044 35.3618 15.5862 36.129 16.0199C36.539 16.2799 36.969 16.5299 37.419 16.7799L38.919 17.6399L40.399 18.4599L38.279 22.8499L38.219 22.8699Z" fill="#231F20"/>
<path d="M69.4999 18.3401C69.7199 18.4001 68.8399 17.8401 68.3399 17.4901C68.1299 17.3401 67.8999 17.2401 67.6999 17.0901C66.9741 16.5472 66.2858 15.9559 65.6399 15.3201C65.3499 15.0301 65.0299 14.7601 64.7399 14.4301C64.5011 14.2295 64.3125 13.9758 64.1892 13.6893C64.066 13.4028 64.0114 13.0914 64.0299 12.7801C64.0299 12.5601 64.4899 12.6401 64.8999 12.7201C65.3099 12.8001 65.7099 12.8001 65.7699 12.9201C66.2199 13.6111 66.7393 14.2545 67.3199 14.8401C67.7549 15.2508 68.2385 15.6067 68.7599 15.9001L69.5899 16.4601L70.0099 16.7501L70.2199 16.8801L70.5499 17.0901L71.3499 17.5801L71.4499 17.6401V17.7001L71.3499 17.9201L71.1499 18.3501L70.6499 19.4201C70.5199 19.7101 70.3899 20.0001 70.2799 20.2901C70.131 20.7631 70.0075 21.2438 69.9099 21.7301C69.9099 21.8301 69.9099 21.9401 69.8399 22.0401C69.7099 22.4201 69.5599 22.4901 69.1299 22.4101H68.8399C68.6935 22.3791 68.5633 22.2962 68.4733 22.1767C68.3832 22.0573 68.3394 21.9093 68.3499 21.7601C68.454 20.8538 68.7004 19.9696 69.0799 19.1401L69.2899 18.6701L69.3899 18.4401L69.4999 18.3401Z" fill="#231F20"/>
<path d="M14.6827 3.99561C14.1843 4.76805 13.8141 5.63335 13.433 6.46708C13.3061 6.74468 13.2344 7.00951 13.0629 7.25907C12.8677 7.54297 12.7444 7.91244 12.6331 8.23413C12.4309 8.81822 12.1135 9.33899 11.8868 9.90566C11.7999 10.123 11.6776 10.3789 11.4968 10.5325C11.3638 10.6455 11.2334 10.6391 11.0948 10.7315C10.7631 10.9526 10.3006 11.0612 9.92676 11.1872C9.46324 11.3434 9.01917 11.5406 8.56566 11.7244C8.16453 11.8871 7.77718 12.0328 7.35181 12.1145C6.96701 12.1884 6.63682 12.3644 6.26929 12.4846C5.74499 12.6561 5.1684 12.7353 4.61766 12.7353C4.54548 12.7353 3.90188 12.7296 3.90726 12.7592C3.93765 12.9263 4.30736 13.0799 4.42265 13.1612C5.28357 13.7682 6.09372 14.4081 7.02148 14.9123C7.56102 15.2055 7.99031 15.5728 8.44626 15.9769C8.71027 16.2109 8.99157 16.3768 9.27407 16.5858C9.55996 16.7974 9.82853 17.0543 10.082 17.3042C10.1582 17.3793 10.3844 17.5569 10.3844 17.6783C10.3844 17.7391 10.2803 17.7988 10.2412 17.8295C9.95183 18.0563 9.72717 18.4206 9.51684 18.717C9.31163 19.0062 9.05737 19.2496 8.86017 19.5428C8.64929 19.8564 8.44078 20.1776 8.21145 20.4781C7.91682 20.8642 7.6751 21.2432 7.43141 21.6641C7.2938 21.9018 7.16438 22.1156 7.00158 22.3327C6.92012 22.4413 6.86739 22.5479 6.79463 22.6571C6.71598 22.775 6.77142 22.9308 6.67922 23.0312C6.55289 23.1686 6.48431 23.2412 6.48022 23.4371C6.47627 23.6271 6.50179 23.6958 6.30113 23.6958" stroke="#FFE16B" stroke-width="2" stroke-linecap="round"/>
<path d="M6.15742 24.5554C6.08735 24.6891 5.82598 25.2885 6.1813 25.1782C6.5582 25.0612 6.93523 24.8404 7.24392 24.5991C7.50851 24.3924 7.70762 24.1239 7.95233 23.8967C8.22743 23.6412 8.50181 23.4041 8.7483 23.1186C9.12099 22.687 9.54982 22.361 9.99399 22.0083C10.4081 21.6794 10.8172 21.32 11.2835 21.065C11.6209 20.8805 11.9937 20.7809 12.3381 20.6153C12.5486 20.5141 12.8012 20.4831 12.9709 20.3208C13.0705 20.2255 13.2511 20.0125 13.3868 19.9785C13.478 19.9557 13.3461 20.1157 13.341 20.1218C13.1776 20.3179 13.0124 20.515 12.8376 20.7009C12.4706 21.0912 12.0707 21.4413 11.6217 21.7337C11.1928 22.013 10.7465 22.2805 10.3562 22.6132C9.86554 23.0313 9.44268 23.5471 9.00301 24.0161C8.99267 24.0271 8.87818 24.1085 8.91744 24.036C9.05238 23.7869 9.33534 23.5809 9.5363 23.3893C10.1294 22.8236 10.6942 22.2556 11.3392 21.7496C11.8304 21.3641 12.2877 20.9891 12.8157 20.6531C13.0773 20.4867 13.3692 20.2735 13.6634 20.1676C14.0257 20.0372 14.407 20.137 14.7618 20.2293C14.9916 20.289 15.2078 20.4215 15.4384 20.4919C15.7175 20.5772 15.9787 20.7283 16.2443 20.8481C16.531 20.9774 16.8245 21.102 17.1139 21.2242C17.4434 21.3633 17.7388 21.5586 18.0611 21.7098C18.6171 21.9706 19.3094 22.1621 19.7486 22.6013C19.9574 22.8101 20.1872 22.9814 20.4411 23.1306C20.649 23.2527 20.9263 23.4231 21.0699 23.6241C21.2857 23.9262 21.6229 24.231 21.9216 24.4837C22.0637 24.604 22.3313 24.7145 22.4131 24.8917C22.4658 25.0059 22.5685 25.04 22.7016 25.0548C22.7139 25.0562 22.7732 25.0495 22.7732 25.0747C22.7732 25.0882 22.0077 24.788 21.9852 24.7782C21.5089 24.5716 21.0807 24.3004 20.6241 24.0579C20.2281 23.8475 19.8229 23.664 19.4421 23.4251C18.9371 23.1082 18.4573 22.7797 17.9099 22.5356C17.5411 22.3712 17.1636 22.2611 16.8154 22.0501C16.6143 21.9281 16.4302 21.8002 16.2423 21.662C16.098 21.5559 16.4003 21.7414 16.4194 21.7496C16.8212 21.9211 17.2297 22.0769 17.6353 22.2391C18.5387 22.6004 19.4248 22.9998 20.3316 23.3534C20.7584 23.5199 21.1427 23.7841 21.5096 24.0559C21.7117 24.2056 21.9594 24.2973 22.1524 24.4559C22.3674 24.6324 22.5372 24.7839 22.7931 24.9135C22.9617 24.9989 23.1335 25.0791 23.3006 25.1663C23.3839 25.2098 23.4605 25.2204 23.5493 25.2439C23.6485 25.2701 23.3603 25.0766 23.3443 25.0608C22.8716 24.5938 22.3564 24.0599 22.025 23.4768C21.7037 22.9113 21.4856 22.2802 21.3524 21.6461C21.1839 20.8436 20.9468 20.0282 20.5943 19.288C20.4606 19.0072 20.3769 18.703 20.25 18.4185C20.1358 18.1621 19.9849 17.9202 19.8839 17.6583C19.818 17.4875 19.719 17.2912 19.6988 17.1091C19.6655 16.8093 20.5857 16.6949 20.7953 16.6395C21.109 16.5564 21.4302 16.4557 21.7385 16.3529C22.088 16.2364 22.4211 16.1807 22.7852 16.1221C23.0774 16.075 23.3593 16.0146 23.6548 15.9927C23.9615 15.97 24.2099 15.8162 24.4905 15.7142C24.5526 15.6916 24.6886 15.6933 24.6079 15.6127C24.3558 15.3606 24.0528 15.141 23.7443 14.964C23.1686 14.6336 22.6171 14.3065 22.0648 13.9372C21.62 13.6397 21.1686 13.385 20.6719 13.185C20.3039 13.0368 19.9442 12.835 19.5396 12.8089C18.7205 12.756 18.0013 12.4366 17.4164 11.8517C17.1507 11.586 16.9166 11.2959 16.6761 11.008C16.5406 10.8457 16.3971 10.6422 16.1986 10.5503C16.0216 10.4685 15.8383 10.4787 15.6493 10.4787" stroke="#FFE16B" stroke-width="2" stroke-linecap="round"/>
<path d="M15.1838 4.96265C15.3752 5.43478 15.5299 5.92422 15.7032 6.40335C15.8028 6.67867 15.9722 6.92951 16.0634 7.21125C16.1359 7.43542 16.2712 7.61452 16.4017 7.81022C16.5496 8.03216 16.6626 8.29474 16.7738 8.53654C16.9417 8.90163 17.2071 9.1641 17.4324 9.48374C17.4871 9.56127 18.082 10.4656 17.7767 10.5125C17.3885 10.5722 16.8414 10.263 16.5529 10.033C16.0585 9.63891 15.8264 9.15085 15.6316 8.56639C15.452 8.02763 15.2362 7.51916 14.9809 7.01226C14.9515 6.95393 14.9174 6.7944 14.8237 6.8471C14.6073 6.96878 14.416 7.58875 14.3481 7.72863C13.8951 8.6613 13.3685 9.59261 13.0467 10.5822C12.9744 10.8045 12.7782 11.3613 12.8656 11.609C12.8818 11.655 12.9252 11.5297 12.9412 11.4836C13.0594 11.1429 13.1345 10.7845 13.2019 10.4309C13.2488 10.1844 13.2432 9.93002 13.2874 9.68671C13.3135 9.54365 13.3304 9.97514 13.3332 10.1205C13.3441 10.6904 13.2919 11.2584 13.2855 11.8279C13.2834 12.0121 13.2628 12.2766 13.3651 11.9114C13.4739 11.5226 13.5759 11.134 13.7232 10.7573C13.8111 10.5328 13.9024 10.2473 14.0735 10.0688C14.278 9.85536 14.4957 10.1211 14.563 10.3135C14.7113 10.738 14.6442 11.2329 14.5351 11.6567C14.3288 12.4585 13.823 13.0185 13.1462 13.4755C12.5469 13.8802 11.8667 14.1921 11.1682 14.3789C10.6493 14.5177 9.82773 14.7333 9.31955 14.4347C8.42492 13.9089 8.70596 12.6392 9.60013 12.3194C10.3999 12.0333 11.1458 12.3451 11.403 13.1611C11.7614 14.2985 10.4809 15.322 9.56033 15.6565C8.76694 15.9448 7.84592 15.6257 7.97039 14.6456C8.09122 13.694 9.25836 13.0785 10.1354 13.2069C10.1833 13.2139 10.4377 13.2596 10.3344 13.3701C10.0128 13.7138 9.19397 13.5601 8.80814 13.4914C8.03628 13.354 7.36899 13.0023 6.665 12.6855C6.65805 12.6824 6.57783 12.6636 6.61923 12.6636C6.83032 12.6636 7.03985 12.7161 7.24009 12.779C8.13419 13.06 8.92505 13.5829 9.83892 13.8218C10.4622 13.9847 11.069 14.0191 11.7015 13.8715C12.6285 13.6552 13.3123 12.6433 13.6596 11.8159C13.6969 11.7269 13.8198 11.5334 13.7232 11.5334C13.5351 11.5334 13.1141 12.245 13.0626 12.3174C12.2896 13.4032 11.5947 14.5387 10.6787 15.5132C10.6648 15.5279 10.6258 15.5571 10.6229 15.5371C10.6164 15.4912 10.6615 15.3395 10.6667 15.3222C10.7914 14.905 10.9535 14.4943 11.1105 14.0884C11.1287 14.0413 11.2167 13.7203 11.3194 13.7203C11.5503 13.7203 11.4916 14.3845 11.4826 14.4784C11.4435 14.8842 11.3501 15.2897 11.2358 15.6803C11.1829 15.8615 11.0857 16.0538 11.0667 16.2435C11.0649 16.2612 11.0617 16.4162 11.0647 16.337C11.0862 15.7721 11.1664 15.2068 11.2299 14.6456C11.3112 13.927 11.3898 13.2044 11.5303 12.4945C11.6004 12.141 11.681 11.7495 11.8885 11.4458C11.9542 11.3498 12.0413 11.1792 12.0139 11.4179C11.9047 12.3699 11.7649 13.3247 11.594 14.2675C11.3168 15.7974 10.8327 17.2966 10.4737 18.8045C10.4462 18.9202 10.3666 18.9858 10.3125 19.0911C10.1208 19.4643 9.91475 19.8153 9.68769 20.1676C9.51931 20.4289 9.43891 20.7339 9.27378 20.9934C9.18815 21.128 9.07314 21.2833 9.03101 21.4392C9.02802 21.4503 9.01149 21.5636 9.03101 21.5665C9.09563 21.5761 9.14911 21.5092 9.20214 21.471C9.4609 21.2849 9.708 21.0786 9.92051 20.8402C10.394 20.3091 10.7452 19.6333 11.0886 19.0155C11.4864 18.2998 11.7957 17.5529 12.0816 16.7867C12.4011 15.9304 12.6918 15.0642 13.0785 14.2357C13.1872 14.0028 13.3012 13.7659 13.369 13.5173C13.3898 13.4413 13.4038 13.2137 13.4287 13.2885C13.4519 13.358 13.4193 13.5239 13.4128 13.583C13.3364 14.2776 13.1775 14.9695 13.0168 15.6485C12.8777 16.2365 12.6654 16.7821 12.4696 17.3479C12.2154 18.0823 13.0444 15.9025 13.2835 15.163C13.5281 14.4063 13.7563 13.6439 13.9859 12.8825C14.0676 12.6117 14.143 12.3341 14.2625 12.0766C14.3087 11.9771 14.2846 12.1571 14.2844 12.1602C14.2459 12.7182 14.1449 13.2729 14.0416 13.8218C13.8895 14.6303 13.3293 17.0332 13.4646 16.2216C13.5048 15.98 13.6186 15.7269 13.6914 15.4973C13.9322 14.7375 14.1357 13.9627 14.4237 13.2188C14.51 12.9959 14.5981 12.7121 14.7739 12.5363C14.9142 12.396 14.9252 12.8555 14.9271 12.8766C15.0229 13.898 14.7627 15.0059 14.4675 15.9788C14.4545 16.0217 14.2449 16.7721 14.1431 16.538C13.9733 16.1474 13.972 15.6157 13.9382 15.2048C13.8784 14.4797 13.8114 13.6883 14.0695 12.99C14.1655 12.7301 14.3437 12.3768 14.6406 12.3015C15.0041 12.2092 15.2323 12.471 15.3749 12.7711C15.8404 13.7509 16.0303 14.982 15.8982 16.0604C15.8869 16.1526 15.8694 16.3799 15.7848 16.4524C15.7676 16.4672 15.7321 16.4747 15.7132 16.4564C15.5373 16.2867 15.4034 15.9099 15.3092 15.7122C14.9463 14.95 14.636 14.1741 14.4575 13.3462C14.3143 12.6818 14.1534 11.8389 14.4396 11.1831C14.793 10.3736 15.6337 11.1525 15.8923 11.601C16.5805 12.7949 16.9117 14.1873 17.0763 15.545C17.1011 15.7501 17.2352 16.7488 16.8594 16.7867C16.539 16.8191 16.2583 16.5491 16.0793 16.3211C15.5303 15.6217 15.1508 14.6852 15.0505 13.8019C15.0279 13.6029 14.9809 12.9177 15.2435 12.8029C15.5786 12.6566 16.03 13.4358 16.143 13.6108C16.7263 14.515 17.2109 15.7765 17.0942 16.8743C16.9553 18.1796 15.204 18.2732 14.1809 18.323C13.5085 18.3557 12.8361 18.3588 12.1631 18.3588C12.0204 18.3588 12.0496 18.2784 12.0995 18.1598C12.2533 17.7938 12.4821 17.4181 12.7482 17.123C12.8108 17.0536 12.9496 16.9366 13.0089 17.0832C13.1538 17.4419 12.9635 18.0043 12.8596 18.3468C12.7312 18.7705 12.5548 19.179 12.3701 19.5806C12.2567 19.8271 12.1451 20.1061 11.9661 20.3149C11.8039 20.5041 11.826 20.2469 11.9084 20.1378C11.9483 20.085 12.1454 19.9517 12.0437 20.094C12.0126 20.1377 11.9203 20.2672 11.9403 20.2174C12.0107 20.0413 12.3307 19.9215 12.4795 19.8592C13.5936 19.3928 14.8766 19.282 16.0674 19.1508C16.4568 19.1078 16.8487 19.1088 17.2394 19.1329C17.5301 19.1508 17.7697 19.1663 17.9856 19.3697C18.3463 19.7093 18.7293 20.0589 19.1517 20.3208C19.3839 20.4648 19.6115 20.6154 19.8701 20.7049C20.08 20.7776 19.9667 20.7877 19.7487 20.675C19.4065 20.4982 19.0352 20.3244 18.7219 20.098C18.2699 19.7712 17.9224 19.2278 17.6673 18.7428C17.1522 17.7636 17.4112 16.7017 17.7449 15.7082C18.0235 14.8784 18.1568 14.0853 18.1568 13.2128C18.1568 13.145 18.1568 12.715 18.1568 12.7631C18.1568 13.193 18.1551 13.6229 18.1727 14.0526C18.2109 14.9856 18.3032 15.8909 18.6025 16.7768C18.6654 16.9628 18.7778 17.5401 18.71 17.3559C18.5871 17.0223 18.5424 16.6542 18.4155 16.3211C18.3567 16.167 18.4753 16.6456 18.511 16.8066C18.6421 17.3987 18.7346 17.9887 18.7796 18.5936C18.7983 18.8451 18.7959 19.6019 18.8015 19.3498C18.8232 18.3722 18.7818 17.3708 18.909 16.4007C18.9626 15.9919 19.0317 15.5225 19.1995 15.1391C19.3307 14.8393 19.7391 14.8231 20.0154 14.8147C20.1274 14.8113 20.6663 14.8941 20.7477 14.8127C20.7628 14.7976 20.7078 14.797 20.688 14.7889C20.5618 14.7374 20.4413 14.6753 20.3198 14.6138C20.0086 14.4561 19.6937 14.3056 19.3786 14.1561C19.1093 14.0283 18.8696 13.9603 18.6562 13.7541C18.4259 13.5314 18.2954 13.0946 18.2443 12.783C18.1545 12.2345 18.1651 11.6695 18.0871 11.1234C18.0558 10.9042 18.2738 11.337 18.3001 11.3742C18.7136 11.9597 19.051 12.5208 19.3189 13.185C19.5252 13.6963 19.8088 14.176 20.2522 14.5182C20.6222 14.8039 21.0046 14.7861 21.4421 14.8486C21.7886 14.8981 21.7053 15.2196 21.5556 15.4396C21.2836 15.8391 20.8646 15.9843 20.4173 16.1022C19.5715 16.3252 18.9075 16.7934 18.4194 17.527C17.9964 18.1628 17.5969 18.8827 17.4145 19.6303C17.3126 20.0482 17.419 20.2895 17.6673 20.6233C17.7173 20.6907 17.7811 20.7453 17.8304 20.8123C17.9626 20.9918 17.3817 20.8509 17.1618 20.8143C15.5182 20.5409 13.9685 20.0119 12.3661 19.5846C11.8699 19.4522 11.369 19.3559 10.8856 19.1786C10.5372 19.0509 10.2518 18.8079 9.89066 18.6971C9.67617 18.6312 9.40704 18.6431 9.20413 18.5518C9.013 18.4658 8.92379 18.2279 8.75441 18.11C8.69641 18.0697 8.63635 18.0526 8.70467 17.9867C8.9206 17.7782 9.13345 17.5873 9.29368 17.328C9.55406 16.9067 9.65992 16.3931 9.75932 15.9152C9.96493 14.9265 10.0833 13.9214 10.225 12.9223C10.3669 11.9209 10.5277 10.9209 10.7762 9.93943C10.8204 9.76474 10.8799 9.59378 10.8856 9.4121C10.8879 9.33874 10.8717 9.27482 10.9314 9.22107C11.1303 9.042 11.4097 8.93244 11.5861 8.73155C11.6936 8.60913 11.6845 8.70655 11.6657 8.82906C11.5515 9.57081 11.1673 10.1937 10.9015 10.8846C10.6091 11.6449 10.5274 12.4431 10.5274 13.2526C10.5274 14.0972 10.6348 14.7559 11.2756 15.3719C11.8513 15.9252 12.6458 16.1994 13.3611 16.5161C14.4732 17.0086 15.5968 17.4723 16.7121 17.9568C17.548 18.3199 18.3745 18.7164 19.2035 19.095C19.4187 19.1934 19.6973 19.3637 19.7328 19.6124" stroke="#FFE16B" stroke-width="2" stroke-linecap="round"/>
<path d="M21.4404 13.569C22.1574 13.8297 22.8598 14.1908 23.6357 14.1908C24.0553 14.1908 24.4749 14.1908 24.8945 14.1908C25.1217 14.1908 24.5709 14.0918 24.4416 14.0142C24.0352 13.7703 23.5779 13.5418 23.1137 13.4347C22.6694 13.3322 22.25 13.1545 21.7858 13.1545" stroke="#FFE16B" stroke-width="2" stroke-linecap="round"/>
<path d="M49.0042 7.48998C48.689 6.93838 48.2609 6.04386 47.7032 5.70921C47.6446 5.67406 47.5271 5.53105 47.4921 5.54802C47.1517 5.71305 46.9863 6.14622 46.7975 6.44608C46.5159 6.8932 46.2288 7.32881 45.9109 7.75096C45.5327 8.25318 45.3668 8.89249 44.9284 9.35518C44.627 9.67331 44.658 10.0505 44.4065 10.3761C44.1564 10.6997 43.9516 11.072 43.754 11.4276C43.5689 11.7609 43.2853 11.8529 42.9788 12.034C42.64 12.2342 42.2602 12.2034 41.9272 12.3564C41.5227 12.5422 41.2663 12.7044 40.8104 12.744C40.3327 12.7856 39.8973 12.8783 39.4057 12.8783C38.8671 12.8783 38.3381 13.2087 37.813 13.3235C37.6245 13.3648 35.771 13.3619 36.0476 13.7227C36.3383 14.1018 36.8776 14.2934 37.2527 14.5747C37.6743 14.8909 38.074 15.2348 38.5038 15.5418C38.8236 15.7702 39.199 15.9228 39.5362 16.1252C39.7819 16.2726 39.9802 16.4956 40.2462 16.6087C40.4373 16.69 40.6525 16.7752 40.8564 16.816C40.9549 16.8357 41.2484 16.8353 41.3208 16.9004C41.4998 17.0615 41.3333 18.1331 41.2978 18.3358C41.1008 19.4612 40.1448 20.3191 40.0198 21.4444C39.9987 21.6339 39.8124 21.8463 39.7013 21.9971C39.5141 22.2511 39.4348 22.4424 39.3674 22.757C39.2386 23.3577 39.1732 23.9767 38.949 24.5531C38.9151 24.6403 38.6403 25.5499 38.8684 25.4358C39.5967 25.0717 40.3382 24.6034 41.0982 24.3152C42.1472 23.9173 42.9256 23.3169 43.8231 22.6726C43.9784 22.5611 44.1864 22.3923 44.3758 22.3502C44.4896 22.3249 44.6344 22.3799 44.7365 22.3118C44.9622 22.1613 45.3202 21.9043 45.5195 21.7208C45.7093 21.5459 45.8839 21.3514 46.0721 21.1758C46.1861 21.0694 46.3186 21.1394 46.4098 21.0146C46.6295 20.714 46.8627 20.6369 46.8627 20.2355C46.8627 19.3313 47.0009 18.4436 47.0009 17.5337C47.0009 16.4869 46.8627 15.4521 46.8627 14.3981C46.8627 13.8577 46.7985 13.2752 46.8781 12.7402C46.9676 12.1381 47.1759 11.4848 47.3463 10.898C47.526 10.2791 47.5788 9.60606 47.8298 9.00978C47.9648 8.68916 47.9279 8.32529 48.0524 7.9889C48.1275 7.78623 48.0858 7.92205 47.9949 8.04647C47.7181 8.4252 47.5179 8.77487 47.3156 9.20167C46.7039 10.4918 45.8931 11.6886 45.2354 12.9551C45.1187 13.1799 44.9452 13.3561 44.8593 13.5922C44.8139 13.7172 44.8173 12.9583 44.821 12.9244C44.8985 12.2004 45.1585 11.6299 45.4043 10.9594C45.4268 10.8981 45.6705 10.1557 45.6116 10.5833C45.5014 11.3822 44.9126 12.26 44.4679 12.909C43.975 13.6283 43.3538 14.1514 42.5873 14.5593C41.985 14.8799 40.8944 15.2046 40.2347 14.8088C39.739 14.5114 40.5316 14.4591 40.7068 14.6092C41.1886 15.0222 39.6105 14.8831 39.4326 14.7973C38.7185 14.4526 39.1733 13.9835 39.732 13.8608C39.9533 13.8122 39.5562 13.9527 39.494 13.9913C39.3199 14.0994 39.0447 14.3864 38.8339 14.3981C38.2896 14.4284 39.9081 14.2114 40.4458 14.1218C41.5149 13.9436 42.5719 13.7288 43.6312 13.5001C43.718 13.4813 44.7642 13.1844 44.7864 13.2621C44.8959 13.6454 44.6904 14.2215 44.5753 14.5708C44.2863 15.4482 43.9288 16.3021 43.6312 17.1767C43.5947 17.2842 43.2326 17.7749 43.2743 17.8791C43.2921 17.9236 43.5568 17.5934 43.5852 17.5682C43.8552 17.3282 43.422 18.2826 43.2436 18.5968C42.8097 19.3608 42.2735 20.0781 41.8044 20.8227C41.5173 21.2786 41.3523 21.77 41.0906 22.2312C40.8441 22.6654 40.3633 22.9144 40.1388 23.3634C40.1152 23.4106 40.2413 23.332 40.2846 23.302C40.678 23.0293 41.0596 22.7403 41.4513 22.4653C42.1347 21.9855 42.9116 21.636 43.5737 21.1297C44.3576 20.5303 44.9791 19.5697 45.1971 18.6044C45.4022 17.6959 45.2738 16.6429 45.2738 15.7145C45.2738 15.396 45.2738 15.0774 45.2738 14.7589C45.2738 14.7085 45.3847 15.368 45.412 15.4958C45.7264 16.9661 45.6883 18.4334 45.6883 19.9247C45.6883 20.5059 44.8725 19.19 44.867 19.1801C44.168 17.9128 43.5655 16.5986 42.4837 15.6109C42.1973 15.3494 42.08 15.5367 42.3801 15.1273C43.4337 13.6899 44.2412 12.0451 45.0282 10.449C45.4446 9.60446 45.8096 8.73376 46.2103 7.88144C46.3657 7.55077 46.5275 6.95217 46.8704 6.76846C47.1547 6.61616 47.7608 6.27996 47.7608 6.79917C47.7608 7.00641 47.7608 7.21366 47.7608 7.4209" stroke="#FFE16B" stroke-width="2" stroke-linecap="round"/>
<path d="M72.0772 21.7897C72.1471 21.0555 72.8786 20.5283 72.9714 19.8324C73.0135 19.5168 73.368 19.3046 73.4934 18.9842C73.6642 18.5476 74.0115 18.0528 74.0115 17.5834C74.0115 17.378 73.9593 17.3337 73.8081 17.1919C73.5971 16.9941 73.5813 17.0274 73.3245 16.9118C72.2134 16.4118 70.9203 15.9353 70.0354 15.0504C69.5958 14.6108 69.1147 14.2319 68.6576 13.8146C68.4296 13.6064 68.0014 13.4317 68.0014 13.0509C68.0014 12.8356 67.3689 12.6709 67.5024 12.6709C68.9125 12.6709 70.3151 12.5328 71.7279 12.5328C72.0474 12.5328 72.4233 12.5888 72.7335 12.4944C72.977 12.4203 73.1495 12.1851 73.3859 12.126C73.7085 12.0453 73.9875 11.6832 74.2149 11.4275C74.5668 11.0315 74.0668 11.2573 73.8541 11.3699C73.3374 11.6435 72.7876 11.9101 72.2384 12.1144C71.8002 12.2775 71.3476 12.226 70.8951 12.2948C70.5356 12.3495 70.1955 12.3946 69.832 12.3946C69.4555 12.3946 69.1103 12.3602 68.7651 12.5328C68.3822 12.7242 67.986 12.6067 67.5907 12.7055C67.5336 12.7198 67.1167 12.754 67.3988 12.7323C68.6876 12.6332 69.9835 12.4429 71.2559 12.2142C72.243 12.0369 73.2446 11.8544 74.2225 11.6309C74.731 11.5147 75.3063 11.5319 75.7961 11.3891C76.4035 11.2119 76.6848 10.5226 76.6289 9.94989C76.6033 9.68724 76.5076 9.42411 76.2182 9.42411C75.8818 9.42411 75.7614 9.64833 75.5044 9.82708C75.3068 9.96456 75.1168 9.82759 75.1168 10.1264C75.1168 10.5016 75.0286 10.8076 75.2741 10.2838C75.6641 9.45174 76.1436 8.68963 76.602 7.89664C76.8812 7.4138 77.0986 6.90349 77.3888 6.42673C77.7395 5.85062 78.4327 5.49979 78.4327 4.7611C78.4327 4.57816 78.4327 4.39523 78.4327 4.21229C78.4327 3.62848 78.4474 4.33207 78.5094 4.52699C78.884 5.70419 79.3673 6.84591 79.7644 8.01561C80.0648 8.90034 80.4852 9.86502 80.6395 10.7904C80.7157 11.2477 80.796 11.4343 81.1307 11.769C81.3555 11.9938 81.5292 12.1888 81.7102 12.4522C81.8959 12.7223 81.6894 11.8814 81.6718 11.8266C81.2185 10.4161 80.9975 8.88143 80.816 7.40923C80.7928 7.221 80.8093 6.63033 80.6049 6.51884C80.3789 6.39558 80.2232 6.12866 80.0599 5.93933C79.8597 5.707 79.6653 5.43504 79.5073 5.17175C79.3191 4.85816 79.0363 4.53226 78.8894 4.20461C78.7947 3.99333 78.6961 3.5723 78.7973 4.10867C78.988 5.11974 79.5209 6.15262 79.9026 7.1022C80.3321 8.17085 80.6724 9.37886 81.2765 10.3605C81.4993 10.7226 81.8942 10.9444 82.1209 11.2931C82.2737 11.5283 82.4212 11.7724 82.5737 12.0108C82.6856 12.1856 82.6935 12.4171 82.827 12.5712C83.0257 12.8004 83.2605 13.0461 83.5102 13.2198C84.0033 13.5628 84.8236 13.5954 85.4061 13.6342C86.3319 13.696 87.2794 13.6381 88.2077 13.6381C88.6725 13.6381 88.6863 14.0687 89.0329 14.3327C89.2762 14.5181 89.4391 14.8125 89.006 14.8125C88.7061 14.8125 88.5859 15.0564 88.3689 15.227C88.089 15.4469 87.7083 15.6052 87.3519 15.6376C86.7454 15.6927 86.1141 15.677 85.5059 15.7067C84.7834 15.7419 84.092 15.5777 83.5447 16.125C83.231 16.4387 82.9508 16.815 83.207 17.2725C83.4285 17.6681 83.6711 18.0469 83.8978 18.4392C84.0814 18.7571 84.3955 18.984 84.5733 19.2951C84.7462 19.5977 84.9801 19.8443 85.1643 20.1624C85.7576 21.1872 85.9292 22.3479 86.4116 23.4093C86.4712 23.5404 86.4961 23.7518 86.5114 23.8967C86.5398 24.1664 86.7083 24.273 86.8146 24.5146C86.9175 24.7484 86.8926 24.9542 86.6112 24.8178C86.3078 24.6707 86.1186 24.3759 85.8935 24.1346C85.3354 23.5367 84.7432 23.1229 84.0628 22.6839C83.8319 22.5349 83.6519 22.3258 83.3758 22.2733C83.115 22.2236 82.9904 21.8769 82.8232 21.6938C82.4953 21.3347 82.4713 20.7667 82.0595 20.4464C81.6594 20.1353 81.2028 19.4549 80.7085 19.3066C80.4441 19.2273 80.3017 19.0266 80.0561 18.9305C79.7811 18.8229 79.4057 18.8883 79.1158 18.8883C78.7313 18.8883 78.3105 18.8396 77.9299 18.8959C77.6841 18.9324 77.4137 19.2149 77.1547 19.2989C76.7929 19.4163 76.4056 19.4032 76.0494 19.5484C75.683 19.6977 75.2872 19.8975 74.9479 20.101C74.5267 20.3538 74.1464 20.6335 73.7735 20.953C73.4685 21.2145 73.0935 21.3665 72.8409 21.6822C72.8048 21.7273 72.0922 22.0693 72.3957 22.2042C72.676 22.3288 72.993 22.3424 73.2938 22.3424C73.722 22.3424 74.1654 22.4352 74.4989 22.1351C75.051 21.6381 75.4407 20.906 75.7385 20.2277C76.1531 19.2833 76.3595 18.3674 76.5329 17.3493C76.6807 16.4821 77.1027 14.9987 76.5329 14.2061C76.3352 13.931 76.0757 13.9455 75.8383 14.1715C75.0704 14.9029 74.5992 15.8351 73.9155 16.6201C73.0807 17.5786 72.893 14.7784 72.6836 14.5515C72.584 14.4436 72.1789 14.575 72.0772 14.6206C71.6037 14.8328 71.1408 14.8815 70.6265 14.8815C70.2458 14.8815 70.4564 14.8833 70.7186 14.8508C71.7764 14.7198 72.816 14.9747 73.8579 15.1272C74.46 15.2153 73.6125 15.151 73.4895 15.1425C72.7167 15.0892 72.0088 14.8787 71.348 14.4671C70.8403 14.1508 70.2362 14.0433 69.6593 13.8991C68.9768 13.7284 71.0594 13.7477 71.7625 13.7225C72.9598 13.6796 74.1566 13.6381 75.3547 13.6381C75.4822 13.6381 76.3529 13.5328 76.3602 13.7225C76.3742 14.0867 76.3643 14.4562 76.3602 14.8201C76.3536 15.4077 76.1953 15.8772 76.0993 16.432C75.9703 17.1772 76.5721 15.6834 76.6212 15.6031C77.2328 14.6033 78.0102 13.6673 78.8011 12.8014C78.9562 12.6316 79.1926 12.2947 79.1926 12.6709C79.1926 13.191 79.1612 13.5443 78.9316 14.0219C78.9013 14.0848 78.8583 14.4156 78.7781 14.3826C78.6695 14.3379 78.6399 14.3051 78.6399 14.1907C78.6399 13.9061 78.7461 13.9157 78.9009 13.7609C78.981 13.6808 78.9045 13.3352 78.9163 13.2236C78.9436 12.9641 79.3028 12.6209 79.4382 12.41C79.6128 12.138 79.8271 11.7697 79.8987 11.4505C79.9834 11.0736 80.1553 10.4429 79.9755 10.0765C79.8389 9.79834 79.4805 9.93734 79.3154 10.0919C78.8343 10.5423 78.3493 10.9969 77.857 11.4351C77.7456 11.5344 77.2583 11.9079 77.2583 11.5119C77.2583 10.7755 77.5974 9.94853 77.9031 9.29362C78.0389 9.00248 78.1983 8.73456 78.3713 8.46464C78.4201 8.38848 78.5214 8.13839 78.5018 8.22669C78.4731 8.35553 78.3619 8.46422 78.2945 8.5721C78.0536 8.95762 77.8699 9.37989 77.6651 9.78486C77.5097 10.0921 77.3521 10.3951 77.1508 10.6752C77.1505 10.6757 76.986 10.917 76.982 10.8671C76.8854 9.66003 77.6037 8.56508 77.6037 7.38236C77.6037 7.22629 77.6067 7.69454 77.6037 7.85058C77.5881 8.66219 77.3215 9.45358 77.1125 10.2301C76.7879 11.4356 76.3894 12.4603 75.6003 13.4155C74.9568 14.1945 74.6604 14.9368 74.5795 15.9715C74.4969 17.0262 74.5641 18.1065 74.5641 19.1646C74.5641 19.2339 74.5311 19.7787 74.6102 19.7787C74.8929 19.7787 75.3784 19.1396 75.5389 18.9727C76.0302 18.4618 76.5041 17.9303 76.982 17.4069C77.8046 16.5059 78.5044 15.411 79.4459 14.6282C79.6938 14.4221 79.8334 14.3162 79.9678 14.6359C80.4498 15.7827 81.1563 16.7713 81.9175 17.7446C82.6027 18.6208 83.6455 19.1335 84.3276 20.0089C84.6137 20.376 84.8573 20.7039 84.8573 21.168C84.8573 21.3691 84.9787 21.9279 84.7191 21.9279C84.3461 21.9279 84.1748 21.7848 83.9439 21.498C83.5275 20.9809 83.0983 20.4869 82.7081 19.9475C82.4936 19.6511 82.1404 19.3508 82.0786 18.9804C82.0293 18.6842 82.0086 17.9543 81.8023 17.7292C81.7196 17.6389 81.218 17.7139 81.1115 17.7139C80.4104 17.7139 79.7644 17.7368 79.1005 17.9902C78.2655 18.3089 77.7483 18.7488 77.1892 19.4256C76.8032 19.8929 76.2717 20.2348 76.1376 20.8379C76.0966 21.0225 76.0198 21.2486 75.892 21.3906C75.7877 21.5064 75.951 21.0535 76.0762 20.9607C76.7816 20.4382 77.599 19.9936 78.4864 19.9936C79.3545 19.9936 80.3185 20.1217 80.935 20.7381C81.046 20.8492 81.1959 20.8411 81.1959 21.0298C81.1959 21.5163 80.9496 20.0864 80.7738 19.6328C80.2093 18.1771 79.6143 16.7293 79.0314 15.2807C78.8781 14.8997 78.6187 14.7459 78.4327 14.4133C78.2975 14.1717 78.2718 13.9666 78.3252 13.6995C78.4859 12.8959 78.6001 12.0605 78.6553 11.2433C78.7368 10.0349 78.6814 8.84541 78.6399 7.64334C78.6152 6.9272 78.5708 6.21628 78.5708 5.49413C78.5708 5.14617 78.5708 4.7982 78.5708 4.45024C78.5708 3.7879 78.4949 4.21905 78.5018 4.67283C78.5141 5.48883 78.7759 6.31298 78.9393 7.10604C79.2016 8.37944 79.4887 9.67481 79.9371 10.8978C80.4127 12.1948 81.0764 13.4948 81.9021 14.6052C82.0894 14.8571 82.2971 15.1308 82.4241 15.4188C82.5219 15.6408 82.5212 15.8872 82.6083 16.1097C82.7894 16.5726 82.8667 16.9328 83.3221 17.1305C83.7527 17.3175 84.1783 17.2994 84.6347 17.2994C85 17.2994 85.0219 16.499 85.0952 16.1787C85.1546 15.9192 85.218 15.6715 85.2027 15.4035C85.1714 14.8571 84.1928 14.2671 83.7827 14.0295C83.2778 13.7371 82.7611 13.7324 82.2322 13.5536C82.0344 13.4868 81.5023 13.4914 81.8407 13.3848C82.7599 13.095 83.6491 12.6699 84.5809 12.4253C84.9839 12.3195 84.8878 12.4108 84.5042 12.3946C83.8684 12.3677 83.1675 11.8154 82.6236 11.5273C82.0369 11.2164 81.7925 10.9568 81.503 10.3529C81.4493 10.2409 81.427 9.47867 81.4569 9.50854C81.7219 9.77355 81.7103 10.3285 81.9865 10.6292C82.1973 10.8586 82.3559 11.0961 82.6313 11.2586C82.7878 11.351 83.1346 11.4053 83.253 11.5119C83.397 11.6414 82.9438 11.7179 82.9383 11.7191C81.4115 12.0833 79.8087 12.1564 78.2485 12.2564C76.8292 12.3474 75.4337 12.4637 74.0115 12.4637C73.0404 12.4637 72.3071 13.2006 71.2943 13.2236C70.3227 13.2457 69.3871 13.141 68.4696 12.8091C68.1544 12.6951 67.784 12.6019 67.4487 12.6019" stroke="#FFE16B" stroke-width="2" stroke-linecap="round"/>
</svg>
